<svg xmlns="http://www.w3.org/2000/svg" xmlns:xlink="http://www.w3.org/1999/xlink" version="1.1" x="0px" y="0px" width="800px" height="800px" viewBox="0 0 800 800">
    <g id="rootLayer">
        <path fill="none" stroke="#ff000b" stroke-width="3" d="M 724 127 L 680 131 L 633 160 L 583 197 L 539 233 L 487 269 L 452 289 L 421 312 L 389 335 L 370 347 L 359 348 L 344 356 L 322 374 L 306 383 L 291 390 L 277 396 L 269 401 L 264 407 L 260 412 L 253 417 L 246 419 L 240 422 L 237 424 L 236 426 L 235 431 L 232 438 L 229 445 L 227 449 L 225 453 L 225 454 L 221 456 L 207 475 L 200 492 L 194 504 L 191 522 L 188 537 L 184 552 L 178 567 L 171 583 L 160 611 L 150 634 L 141 638 L 110 665 L 82 693 L 62 713 L 50 724 L 42 731 L 40 748 L 41 765 L 50 774 L 55 774 L 60 771 L 113 739 L 172 700 L 224 650 L 266 593 L 315 532 L 344 494 L 377 462 L 395 445 L 457 393 L 510 338 L 556 299 L 604 259 L 639 230 L 662 199 L 671 187 L 696 171 L 728 149 L 732 137 L 732 127 L 731 122 L 730 119 L 730 117 L 727 116 L 715 116 L 703 117 L 670 147 L 637 191 L 606 220 L 574 245 L 549 273 L 522 310 L 512 329 L 490 337 L 421 411 L 385 460 L 354 496 L 327 527 L 315 541 L 311 541 L 252 588 L 196 661 L 159 700 L 122 725 L 101 736 L 86 746 L 78 751 L 77 752 L 67 755 L 60 757 L 60 747 L 63 733 L 67 716 L 93 660 L 121 621 L 158 567 L 239 498 L 333 436 L 403 373 L 414 367 L 422 360 L 459 312 L 516 251 L 565 210 L 632 163 L 690 112 L 698 106 L 702 110 L 713 132 L 720 168 L 722 215 L 723 248 L 731 299 L 743 373 L 738 394 L 730 497 L 740 565 L 747 632 L 753 678 L 738 715 L 725 805 L 725 837 L 708 807 L 628 617 L 542 488 L 477 456 L 453 446 L 392 400 L 253 297 L 196 252 L 189 246 L 167 234 L 119 199 L 91 159 L 85 138 L 84 131 L 84 130 L 87 135 L 108 170 L 163 219 L 211 254 L 252 276 L 310 312 L 318 325 L 318 327 L 357 379 L 420 448 L 470 500 L 517 552 L 526 567 L 526 568 L 549 598 L 596 659 L 617 685 L 636 723 L 698 758 L 743 791 L 753 798 L 779 809 L 791 816 L 794 816 L 770 793 L 716 743 L 664 667 L 646 623 L 643 614 L 617 613 L 547 565 L 448 454 L 414 377 L 413 370 L 381 353 L 292 275 L 239 218 L 224 195 L 202 188 L 136 136 L 120 113 L 120 114 L 146 162 L 223 250 L 296 298 L 321 319 L 361 394 L 365 408 L 404 443 L 468 528 L 529 594 L 550 622 L 554 622 L 609 657 L 665 701 L 700 726 L 717 737 L 719 738 L 705 732 L 604 652 L 528 566 L 516 550 L 506 543 L 443 493 L 385 421 L 381 415 L 374 404 L 289 326 L 262 288 L 249 279 L 200 232 L 175 188 L 174 186 L 174 185 L 164 184 L 159 182 L 124 142 L 122 123 L 129 146 L 137 201 L 138 300 L 138 402 L 145 480 L 141 543 L 159 730 L 162 745 L 163 738 L 326 557 L 428 483 L 479 376 L 631 216 L 649 197 L 658 188 L 739 94 L 755 76 L 753 76 L 611 196 L 521 309 L 511 321 L 457 344 L 301 480 L 281 508 L 218 555 L 139 627 L 136 641 L 107 692 L 105 696 L 113 689 L 367 436 L 527 285 L 641 180 L 735 103 L 757 85 L 750 86 L 747 88 L 550 239 L 424 416 L 412 432 L 366 478 L 269 564 L 196 670 L 175 698 L 180 711 L 183 711 L 204 705 L 560 711 L 604 720 L 623 720 L 725 730 L 726 731 L 723 731 L 573 731 L 362 731 L 325 738 L 325 738 L 190 726 L 122 708 L 399 733 L 567 759 L 572 757 L 710 726 L 758 714 L 758 713 L 719 719 L 478 724 L 349 654 L 257 655 L 207 652 L 204 656 L 290 661 L 503 674 L 526 678 L 593 700 L 593 701 L 638 701 L 694 717 L 635 725 L 386 739 L 320 732 L 315 732 L 448 750 L 664 793 L 691 805 L 706 772 L 743 730 L 687 745 L 397 746 L 327 721 L 325 720 L 276 723 L 211 722 L 208 721 L 416 702 L 691 737 L 694 741 L 680 730 L 414 468 L 382 428 L 266 346 L 196 268 L 178 230 L 141 164 L 154 164 L 540 182 L 644 223 L 651 217 L 711 185 L 653 138 L 389 119 L 310 119 L 296 115 L 295 115 L 294 117 L 294 118 L 219 122 L 170 121 L 132 119 L 222 115 L 357 124 L 490 119 L 585 125 L 639 129 L 687 126 L 710 123 L 710 123 L 577 100 L 428 87 L 300 86 L 201 100 L 176 114 L 146 125 L 128 132 L 229 120 L 483 97 L 549 96 L 593 112 L 649 117 L 705 116 L 674 120 L 537 127 L 418 113 L 309 118 L 254 126 L 206 141 L 173 148 L 140 152 L 198 142 L 435 139 L 622 136 L 705 130 L 706 130 "></path>
    </g>
</svg>
