<svg xmlns="http://www.w3.org/2000/svg" xmlns:xlink="http://www.w3.org/1999/xlink" version="1.1" x="0px" y="0px" width="800px" height="800px" viewBox="0 0 800 800">
    <g id="rootLayer">
        <path fill="none" stroke="#ce0034" stroke-width="3" d="M 111 547 L 111 547 L 111 547 L 111 546 L 111 546 L 111 546 L 111 546 L 111 546 L 110 547 L 110 547 L 109 547 L 109 547 L 108 547 L 108 547 L 108 547 L 107 547 L 106 547 L 106 547 L 105 547 L 105 547 L 104 547 L 104 547 L 103 547 L 101 547 L 100 547 L 98 547 L 97 547 L 96 547 L 95 547 L 94 547 L 93 547 L 91 547 L 90 547 L 89 547 L 89 546 L 88 546 L 87 545 L 86 545 L 86 544 L 84 544 L 84 544 L 83 544 L 82 544 L 82 544 L 81 544 L 80 544 L 79 544 L 79 544 L 78 544 L 77 544 L 76 544 L 75 544 L 74 544 L 74 544 L 73 544 L 72 544 L 72 544 L 71 544 L 71 544 L 70 544 L 69 543 L 69 543 L 69 543 L 69 543 L 69 543 L 69 543 L 68 543 L 68 543 L 68 543 L 68 543 L 67 543 L 67 543 L 67 543 L 67 543 L 66 543 L 66 543 L 65 543 L 65 543 L 64 543 L 64 543 L 64 543 L 63 543 L 63 543 L 63 543 L 63 543 L 63 543 L 63 543 L 63 543 L 63 543 L 63 543 L 62 543 L 62 543 L 62 543 L 62 543 L 62 543 L 62 543 L 62 543 L 62 543 L 61 543 L 61 543 L 61 543 L 61 543 L 61 543 L 61 543 L 61 544 L 61 544 L 61 544 L 61 545 L 61 545 L 61 546 L 61 548 L 61 549 L 61 552 L 61 553 L 62 555 L 62 556 L 62 557 L 63 558 L 63 559 L 64 561 L 64 564 L 65 566 L 65 567 L 65 569 L 66 571 L 66 572 L 66 574 L 66 575 L 67 577 L 67 578 L 67 582 L 67 584 L 67 586 L 68 588 L 68 590 L 68 592 L 68 594 L 68 595 L 68 597 L 68 599 L 69 603 L 69 607 L 70 608 L 70 610 L 70 612 L 71 614 L 71 616 L 71 618 L 71 621 L 72 624 L 72 626 L 72 627 L 73 629 L 73 629 L 73 630 L 73 630 L 73 632 L 73 633 L 73 635 L 73 638 L 73 640 L 73 641 L 73 642 L 73 644 L 73 645 L 73 646 L 73 647 L 73 647 L 73 648 L 74 648 L 74 649 L 74 649 L 74 649 L 74 650 L 74 650 L 74 650 L 74 651 L 74 651 L 74 651 L 74 651 L 74 651 L 74 652 L 74 653 L 74 655 L 74 656 L 74 657 L 74 657 L 74 657 L 74 657 L 74 657 L 74 657 L 74 657 L 74 657 L 74 657 L 75 657 L 75 657 L 76 657 L 76 657 L 77 657 L 77 657 L 78 657 L 79 657 L 80 657 L 82 657 L 83 657 L 86 657 L 87 657 L 88 658 L 90 658 L 92 658 L 93 658 L 93 658 L 94 658 L 95 658 L 96 657 L 97 657 L 98 657 L 98 657 L 99 657 L 101 657 L 102 657 L 103 657 L 104 657 L 106 657 L 107 657 L 108 657 L 110 657 L 111 658 L 112 658 L 113 658 L 114 658 L 115 658 L 117 659 L 117 659 L 118 659 L 118 659 L 118 657 L 118 657 L 117 656 L 116 655 "></path>
        <path fill="none" stroke="#ce0034" stroke-width="3" d="M 69 597 L 69 597 L 68 597 L 68 597 L 68 597 L 68 597 L 68 597 L 68 598 L 68 598 L 68 598 L 68 598 L 68 598 L 68 598 L 68 599 L 69 599 L 70 600 L 71 600 L 72 600 L 75 601 L 77 601 L 80 602 L 81 602 L 83 602 L 85 602 L 86 602 L 88 602 L 89 602 L 90 602 L 92 602 L 93 602 L 95 602 L 96 602 L 97 602 L 97 602 L 98 602 L 98 602 L 98 602 L 98 603 L 98 603 L 97 603 L 97 604 L 96 605 L 96 605 L 96 606 "></path>
        <path fill="none" stroke="#ce2a00" stroke-width="3" d="M 151 548 L 151 548 L 151 548 L 151 547 L 151 547 L 151 547 L 151 549 L 151 550 L 150 553 L 150 555 L 150 557 L 150 559 L 150 561 L 150 563 L 150 565 L 150 569 L 150 571 L 150 573 L 150 577 L 150 579 L 150 581 L 150 583 L 150 586 L 150 590 L 150 592 L 150 595 L 150 599 L 151 601 L 151 603 L 151 605 L 152 609 L 152 610 L 153 612 L 154 615 L 154 617 L 155 619 L 155 621 L 156 623 L 157 628 L 158 630 L 159 632 L 159 634 L 160 635 L 160 637 L 161 638 L 161 639 L 162 639 L 162 640 L 164 641 L 164 641 L 165 642 L 167 643 L 168 644 L 169 645 L 170 646 L 171 648 L 172 649 L 174 650 L 175 651 L 178 653 L 179 653 L 180 654 L 182 655 L 183 655 L 184 656 L 185 656 L 186 656 L 188 657 L 189 657 L 190 657 L 190 656 L 191 656 L 193 654 L 194 652 L 196 649 L 197 647 L 198 646 L 199 644 L 201 642 L 202 640 L 203 638 L 204 633 L 205 631 L 205 626 L 205 622 L 205 619 L 205 616 L 205 613 L 205 607 L 205 604 L 204 598 L 204 595 L 204 593 L 204 590 L 204 587 L 204 582 L 204 580 L 204 575 L 204 573 L 204 570 L 204 568 L 204 566 L 204 561 L 204 558 L 205 555 L 205 551 L 206 547 L 206 543 L 206 540 L 207 535 L 207 533 L 206 530 L 206 529 L 206 529 L 205 529 L 205 529 L 205 529 L 204 530 L 204 532 L 204 533 L 204 534 L 204 536 L 204 537 L 203 539 "></path>
        <path fill="none" stroke="#9f9900" stroke-width="3" d="M 242 648 L 242 648 L 243 648 L 244 647 L 245 646 L 246 644 L 247 643 L 248 641 L 248 639 L 250 633 L 252 626 L 255 617 L 256 613 L 259 605 L 261 601 L 262 598 L 263 594 L 264 592 L 265 587 L 266 585 L 268 581 L 269 579 L 270 576 L 271 574 L 272 570 L 275 564 L 278 558 L 279 555 L 280 552 L 282 550 L 283 547 L 285 544 L 286 542 L 286 542 L 286 542 L 286 542 L 286 542 L 286 544 L 286 546 L 286 550 L 287 552 L 287 555 L 287 557 L 287 559 L 287 561 L 287 566 L 287 568 L 288 575 L 288 578 L 289 587 L 290 596 L 290 600 L 291 609 L 292 614 L 293 622 L 294 629 L 295 631 L 295 636 L 296 636 L 296 637 L 296 637 L 296 637 L 296 638 L 296 640 L 297 641 L 297 644 L 297 645 L 298 647 L 298 647 L 298 648 L 298 648 L 299 650 L 300 652 L 302 657 L 302 660 L 303 662 L 303 663 L 303 662 L 303 659 L 303 657 L 302 655 L 301 653 L 300 651 "></path>
        <path fill="none" stroke="#9f9900" stroke-width="3" d="M 255 606 L 256 606 L 258 607 L 262 608 L 264 608 L 268 608 L 271 608 L 273 608 L 276 608 L 281 608 L 286 608 L 288 608 L 291 608 L 292 608 L 294 608 L 294 608 L 294 608 L 295 608 L 295 609 L 295 609 "></path>
        <path fill="none" stroke="#809f00" stroke-width="3" d="M 319 650 L 319 651 L 319 651 L 319 651 L 319 651 L 319 651 L 319 651 L 319 652 L 319 652 L 319 652 L 319 652 L 320 652 L 320 653 L 320 653 L 320 653 L 320 653 L 320 654 L 320 654 L 321 654 L 321 654 L 321 654 L 321 655 L 321 655 L 321 655 L 321 655 L 321 655 L 322 654 L 323 654 L 324 651 L 325 649 L 328 642 L 329 637 L 332 626 L 334 620 L 335 615 L 336 610 L 338 604 L 338 599 L 339 596 L 339 594 L 340 591 L 340 590 L 341 587 L 342 584 L 342 582 L 343 580 L 344 575 L 345 573 L 345 572 L 347 568 L 347 567 L 348 565 L 349 564 L 350 564 L 350 564 L 350 564 L 350 564 L 350 565 L 351 567 L 351 568 L 352 572 L 352 575 L 353 582 L 353 585 L 353 590 L 353 603 L 353 608 L 353 619 L 354 627 L 354 630 L 355 635 L 356 638 L 357 639 L 358 639 L 359 640 L 359 640 L 360 641 L 360 642 L 360 642 L 361 645 L 361 645 L 361 646 L 361 645 L 362 643 L 362 641 L 363 638 L 363 635 L 364 632 L 365 628 L 366 620 L 367 611 L 367 607 L 368 603 L 368 599 L 369 596 L 369 593 L 370 588 L 370 586 L 370 585 L 371 582 L 371 581 L 372 579 L 372 577 L 373 576 L 373 575 L 374 575 L 374 575 L 374 575 L 375 575 L 376 576 L 376 577 L 377 578 L 377 578 L 378 579 L 379 579 L 379 580 L 379 580 L 379 581 L 380 583 L 380 588 L 380 594 L 381 600 L 381 604 L 382 609 L 383 614 L 384 621 L 385 624 L 386 634 L 387 640 L 389 644 L 389 645 L 390 646 L 390 647 L 391 648 L 392 649 L 392 650 L 392 650 L 392 651 L 392 651 L 392 652 L 392 652 L 392 652 L 392 652 L 391 652 "></path>
        <path fill="none" stroke="#00c446" stroke-width="3" d="M 431 570 L 427 570 L 427 570 L 425 572 L 424 572 L 422 574 L 421 575 L 420 576 L 419 576 L 417 578 L 415 582 L 414 584 L 412 587 L 410 590 L 409 591 L 407 594 L 405 596 L 403 598 L 402 599 L 400 602 L 399 605 L 398 610 L 397 613 L 396 619 L 395 625 L 395 629 L 395 633 L 395 636 L 398 653 L 400 656 L 402 659 L 403 661 L 405 662 L 406 663 L 409 665 L 412 666 L 415 667 L 417 667 L 420 667 L 424 665 L 427 662 L 430 658 L 431 656 L 433 652 L 436 648 L 438 643 L 440 638 L 442 632 L 444 630 L 446 625 L 447 623 L 447 620 L 447 615 L 447 610 L 447 605 L 447 602 L 446 596 L 446 590 L 445 585 L 445 584 L 445 583 L 444 581 L 443 580 L 442 579 L 442 578 L 441 578 L 440 577 L 439 577 L 439 576 L 438 576 L 437 575 L 436 574 L 434 574 L 433 573 L 432 572 L 430 571 L 429 571 L 429 570 L 428 570 L 428 569 L 427 568 L 426 568 L 425 568 L 424 570 L 423 573 L 422 574 L 422 576 L 420 578 L 419 579 L 419 579 L 418 579 "></path>
        <path fill="none" stroke="#00c5a0" stroke-width="3" d="M 481 566 L 480 566 L 480 566 L 480 566 L 480 566 L 480 566 L 479 566 L 479 566 L 479 565 L 479 565 L 479 566 L 480 567 L 481 569 L 482 571 L 482 572 L 484 577 L 485 579 L 486 584 L 487 588 L 488 589 L 488 593 L 489 597 L 490 602 L 490 604 L 491 608 L 491 611 L 491 612 L 492 614 L 492 617 L 493 619 L 493 624 L 493 628 L 493 631 L 493 632 L 493 633 L 494 636 L 494 637 L 494 639 L 495 643 L 496 646 L 496 648 L 497 649 L 497 649 L 497 649 L 498 649 L 498 649 L 498 648 L 499 647 L 499 647 L 500 647 L 500 647 L 500 647 L 500 647 L 500 647 L 500 647 L 500 646 L 501 646 L 501 645 L 502 643 L 502 642 L 503 640 L 504 636 L 506 631 L 508 623 L 511 615 L 513 607 L 514 603 L 515 599 L 516 596 L 518 591 L 518 588 L 519 587 L 519 586 L 519 585 L 519 584 L 519 583 L 519 580 L 520 575 L 522 571 L 522 570 L 523 570 L 523 570 L 523 570 L 523 570 L 523 570 L 524 571 L 524 571 "></path>
        <path fill="none" stroke="#00c5c7" stroke-width="3" d="M 541 565 L 541 566 L 541 567 L 541 569 L 541 571 L 541 573 L 541 575 L 540 577 L 540 579 L 540 581 L 539 582 L 538 586 L 538 588 L 538 590 L 537 594 L 537 600 L 536 606 L 536 608 L 536 612 L 536 615 L 536 621 L 537 623 L 538 630 L 539 635 L 540 638 L 541 639 L 541 640 L 542 641 L 543 642 L 544 643 L 545 643 L 547 644 L 548 646 L 549 647 L 550 648 L 550 649 L 551 650 L 551 651 L 552 651 L 553 652 L 554 652 L 555 652 L 556 652 L 557 651 L 558 650 L 561 648 L 564 646 L 565 646 L 567 644 L 568 643 L 569 641 L 570 639 L 571 637 L 573 634 L 575 632 L 576 631 L 577 630 L 578 626 L 579 624 L 580 619 L 581 615 L 582 610 L 583 605 L 583 601 L 583 598 L 583 596 L 584 594 L 584 592 L 584 589 L 584 587 L 584 582 L 584 579 L 584 575 L 584 572 L 585 569 L 585 565 L 585 561 L 585 559 L 585 558 L 585 557 L 585 557 L 584 557 L 584 557 L 583 557 L 583 557 L 583 557 L 583 557 L 583 557 L 583 558 "></path>
        <path fill="none" stroke="#0091c8" stroke-width="3" d="M 597 563 L 597 564 L 597 564 L 597 565 L 597 565 L 597 567 L 597 569 L 598 574 L 599 578 L 600 580 L 602 585 L 604 589 L 605 591 L 608 597 L 610 601 L 611 604 L 613 607 L 615 610 L 617 613 L 618 614 L 620 617 L 622 620 L 623 621 L 625 625 L 627 628 L 627 631 L 628 632 L 628 634 L 628 636 L 629 639 L 629 643 L 630 645 L 630 646 L 631 647 L 631 647 L 631 646 L 630 644 "></path>
        <path fill="none" stroke="#0091c8" stroke-width="3" d="M 585 652 L 586 652 L 586 652 L 588 650 L 589 647 L 590 644 L 592 641 L 593 638 L 596 631 L 598 626 L 600 623 L 604 616 L 605 613 L 608 607 L 609 604 L 612 599 L 614 596 L 614 595 L 616 593 L 618 592 L 619 591 L 622 589 L 624 587 L 626 585 L 628 583 L 630 581 L 631 579 L 632 578 L 633 577 L 633 576 L 633 576 L 633 576 L 633 576 L 633 576 L 633 576 L 633 576 L 633 576 L 632 576 "></path>
        <path fill="none" stroke="#0067cc" stroke-width="3" d="M 702 639 L 701 639 L 701 639 L 701 639 L 701 639 L 701 639 L 701 639 L 701 639 L 701 639 L 701 640 L 701 640 L 700 640 L 700 640 L 700 640 L 699 640 L 698 639 L 697 639 L 696 638 L 695 638 L 693 638 L 692 637 L 690 637 L 688 636 L 687 636 L 684 636 L 681 636 L 679 636 L 678 637 L 676 637 L 674 637 L 673 637 L 672 637 L 671 637 L 669 637 L 668 637 L 667 637 L 666 637 L 665 637 L 664 637 L 663 636 L 663 636 L 663 636 L 662 636 L 661 636 L 661 636 L 660 636 L 659 636 L 659 636 L 658 636 L 658 637 L 657 637 L 657 638 L 656 638 L 656 638 L 656 638 L 656 638 L 656 636 L 657 633 L 657 631 L 659 626 L 659 624 L 660 619 L 661 615 L 661 613 L 661 610 L 660 607 L 660 603 L 660 601 L 660 597 L 660 595 L 660 593 L 660 591 L 660 589 L 660 587 L 661 584 L 661 583 L 662 580 L 662 578 L 663 576 L 663 575 L 663 573 L 663 571 L 663 570 L 662 568 L 662 566 L 662 566 L 662 565 L 662 564 L 662 563 L 662 563 L 662 563 L 662 563 L 662 562 L 662 561 L 662 560 L 662 559 L 663 558 L 663 557 L 663 557 L 663 557 L 663 557 L 663 557 L 664 557 L 665 558 L 667 560 L 670 561 L 672 562 L 673 562 L 676 563 L 677 563 L 678 563 L 679 565 L 681 566 L 683 567 L 684 568 L 686 569 L 687 569 L 688 570 L 689 570 L 689 570 L 690 570 L 691 570 L 692 570 L 694 571 L 695 572 L 695 572 L 695 572 "></path>
        <path fill="none" stroke="#0067cc" stroke-width="3" d="M 661 601 L 661 601 L 661 601 L 662 600 L 663 600 L 663 600 L 663 600 L 664 600 L 666 600 L 667 600 L 669 600 L 671 600 L 672 600 L 672 600 L 673 601 L 674 601 L 675 601 L 677 602 L 680 602 L 683 602 L 685 603 L 687 604 L 689 605 L 690 605 L 692 605 L 692 605 L 692 605 L 692 605 L 693 606 L 694 606 L 695 606 L 696 606 L 697 606 L 697 606 L 697 606 L 696 606 L 695 605 L 695 603 "></path>
    </g>
</svg>
