<svg xmlns="http://www.w3.org/2000/svg" xmlns:xlink="http://www.w3.org/1999/xlink" version="1.1" x="0px" y="0px" width="800px" height="800px" viewBox="0 0 800 800">
    <g id="rootLayer">
        <path fill="none" stroke="#00eb16" stroke-width="3" d="M 88 574 L 88 576 L 88 578 L 88 581 L 88 584 L 88 586 L 88 588 L 88 593 L 89 598 L 90 603 L 91 608 L 91 613 L 92 617 L 93 619 L 94 626 L 95 633 L 95 638 L 95 645 L 96 652 L 97 656 L 97 658 L 97 660 L 98 664 L 99 666 L 99 667 L 99 667 L 99 668 L 99 668 L 99 669 L 99 669 L 99 670 L 99 670 L 99 671 L 99 671 L 99 672 L 99 673 L 99 675 L 99 676 L 99 677 L 99 679 L 99 680 L 99 681 L 99 683 L 99 684 L 99 685 L 99 687 L 99 687 L 99 688 L 99 689 L 99 690 L 99 690 L 99 691 L 99 692 L 99 692 L 99 693 L 99 694 L 99 696 L 98 698 L 97 700 L 97 701 L 97 702 L 97 703 L 96 704 L 96 704 L 96 705 L 96 705 L 96 705 L 96 706 L 96 706 "></path>
        <path fill="none" stroke="#00eb16" stroke-width="3" d="M 38 581 L 40 581 L 41 581 L 46 581 L 48 581 L 54 581 L 58 581 L 64 581 L 71 581 L 73 581 L 81 581 L 83 581 L 89 581 L 94 580 L 98 579 L 100 579 L 102 578 L 105 578 L 106 577 L 107 577 L 108 577 L 110 576 L 111 576 L 113 575 L 115 575 L 116 574 L 118 574 L 119 574 L 120 574 L 120 574 L 121 574 L 121 574 L 121 574 L 121 574 L 121 575 "></path>
        <path fill="none" stroke="#00eb16" stroke-width="3" d="M 228 572 L 227 572 L 225 572 L 223 572 L 222 572 L 219 572 L 216 572 L 213 572 L 212 572 L 209 572 L 208 572 L 204 572 L 201 572 L 198 572 L 196 573 L 195 573 L 194 573 L 193 573 L 191 574 L 190 574 L 189 575 L 187 575 L 185 576 L 183 576 L 181 576 L 179 577 L 177 577 L 175 577 L 173 578 L 173 578 L 172 578 L 171 578 L 171 578 L 170 578 L 169 578 L 168 578 L 167 578 L 166 578 L 166 578 L 166 580 L 166 585 L 167 590 L 168 596 L 169 602 L 170 606 L 171 610 L 171 614 L 172 622 L 173 629 L 174 635 L 175 641 L 176 646 L 176 649 L 176 652 L 176 654 L 177 656 L 177 659 L 178 663 L 178 665 L 178 668 L 179 671 L 179 674 L 180 676 L 180 679 L 180 681 L 180 683 L 180 684 L 180 684 L 181 685 L 181 687 L 181 688 L 181 689 L 181 690 L 181 691 L 181 691 L 181 692 L 181 692 L 182 691 L 184 691 L 186 691 L 191 690 L 195 689 L 200 689 L 202 689 L 206 689 L 210 689 L 214 689 L 218 689 L 220 689 L 222 689 L 224 688 L 226 687 L 227 687 L 229 687 L 231 687 L 234 687 L 236 686 L 238 686 L 240 686 L 241 685 L 242 685 L 243 685 L 243 685 "></path>
        <path fill="none" stroke="#00eb16" stroke-width="3" d="M 179 632 L 182 632 L 185 632 L 186 632 L 191 632 L 197 632 L 204 632 L 208 631 L 213 630 L 218 629 L 220 628 L 222 628 L 225 627 L 226 626 L 227 626 L 229 626 L 230 626 L 232 625 L 233 625 L 234 625 L 235 625 L 236 625 L 236 625 L 237 625 L 237 625 L 237 625 L 238 625 L 238 625 L 239 625 L 239 625 L 239 625 L 239 625 "></path>
        <path fill="none" stroke="#e2e200" stroke-width="3" d="M 325 687 L 325 680 L 325 672 L 325 663 L 326 656 L 327 649 L 329 639 L 331 629 L 332 624 L 333 619 L 334 613 L 335 611 L 336 609 L 336 607 L 337 604 L 337 602 L 338 600 L 339 597 L 340 594 L 341 591 L 344 586 L 346 582 L 347 579 L 348 577 L 349 576 L 349 575 L 350 574 L 350 573 L 351 572 L 351 571 L 351 571 L 352 570 L 352 569 L 353 568 L 353 567 L 354 565 L 354 564 L 355 563 L 355 562 L 355 561 L 355 560 L 356 559 L 356 558 L 356 558 L 356 561 L 356 563 L 356 566 L 358 571 L 361 578 L 363 583 L 365 589 L 368 597 L 371 604 L 374 616 L 377 623 L 381 632 L 383 637 L 385 640 L 387 644 L 390 648 L 391 650 L 392 654 L 393 656 L 394 659 L 395 662 L 396 665 L 397 666 L 397 669 L 398 671 L 398 672 L 398 673 L 399 674 L 399 675 L 400 676 L 400 677 L 400 678 L 400 678 "></path>
        <path fill="none" stroke="#e2e200" stroke-width="3" d="M 332 632 L 339 632 L 344 632 L 352 632 L 357 632 L 361 632 L 363 632 L 366 632 L 371 632 L 374 632 L 377 632 L 379 632 L 380 632 L 380 632 L 381 632 L 382 632 L 383 632 L 384 632 L 385 632 L 386 632 L 384 632 "></path>
        <path fill="none" stroke="#e2e200" stroke-width="3" d="M 419 685 L 419 675 L 421 662 L 423 650 L 426 638 L 427 634 L 430 623 L 433 612 L 435 604 L 437 597 L 439 592 L 440 587 L 441 583 L 442 581 L 442 580 L 442 578 L 443 576 L 443 574 L 443 573 L 443 572 L 444 571 L 444 570 L 445 569 L 445 568 L 445 567 L 446 566 L 446 566 L 446 566 L 447 565 L 447 564 L 447 564 L 447 565 L 447 569 L 448 574 L 450 578 L 454 586 L 458 594 L 462 602 L 465 610 L 468 617 L 471 623 L 474 631 L 476 637 L 480 643 L 482 647 L 484 651 L 485 654 L 486 658 L 488 662 L 489 665 L 490 669 L 491 672 L 492 674 L 492 675 L 492 676 L 493 676 L 493 677 L 493 678 L 493 679 L 493 679 L 494 679 L 494 674 L 495 663 L 496 650 L 499 640 L 500 630 L 502 622 L 504 614 L 506 608 L 508 602 L 510 598 L 511 594 L 512 592 L 512 588 L 512 586 L 512 584 L 512 583 L 512 582 L 512 581 L 513 580 L 513 579 L 513 579 L 513 577 L 514 576 L 514 575 L 514 574 L 514 573 L 514 572 L 515 572 L 515 572 L 515 572 L 516 572 L 516 573 L 517 574 L 517 577 L 518 580 L 519 585 L 521 590 L 524 598 L 527 608 L 532 618 L 536 628 L 540 635 L 543 639 L 546 643 L 548 647 L 550 651 L 551 654 L 553 656 L 553 657 L 554 658 L 554 659 L 554 660 L 555 661 L 556 662 L 556 662 L 556 663 L 556 663 L 556 663 L 557 664 L 557 665 L 558 666 L 558 667 L 558 667 "></path>
        <path fill="none" stroke="#e2e200" stroke-width="3" d="M 622 569 L 619 569 L 612 569 L 607 570 L 604 574 L 600 578 L 598 581 L 596 585 L 594 589 L 592 593 L 591 598 L 590 605 L 590 612 L 590 619 L 592 624 L 594 629 L 596 635 L 599 640 L 602 644 L 606 648 L 610 653 L 614 656 L 619 660 L 623 662 L 626 663 L 630 664 L 633 665 L 636 665 L 638 665 L 640 662 L 642 660 L 646 654 L 649 650 L 651 645 L 653 642 L 653 641 L 654 639 L 655 635 L 656 632 L 656 629 L 656 626 L 654 622 L 652 617 L 649 612 L 648 608 L 644 603 L 641 597 L 636 591 L 633 587 L 630 584 L 627 581 L 624 578 L 620 576 L 617 574 L 614 574 L 611 574 L 609 574 L 607 574 L 606 575 L 605 576 L 605 577 "></path>
        <path fill="none" stroke="#ff9400" stroke-width="3" d="M 719 563 L 719 565 L 719 568 L 719 572 L 719 580 L 720 586 L 720 588 L 720 595 L 721 603 L 721 610 L 721 619 L 721 629 L 721 636 L 721 640 L 721 643 L 722 647 L 722 649 L 722 652 L 722 653 L 722 654 L 722 655 L 722 658 L 722 660 L 722 661 "></path>
        <path fill="none" stroke="#ff9400" stroke-width="3" d="M 717 685 L 714 686 L 711 692 L 711 697 L 711 699 L 712 701 L 713 703 L 716 705 L 719 706 L 725 707 L 730 707 L 734 707 L 736 707 L 737 705 L 737 703 L 737 700 L 735 699 L 734 696 L 733 694 L 733 693 L 731 692 L 728 692 L 726 692 L 725 693 L 722 694 L 720 695 L 719 695 L 718 695 L 718 695 L 718 694 "></path>
        <path fill="none" stroke="#ff000e" stroke-width="3" d="M 382 346 L 376 329 L 369 318 L 364 313 L 362 311 L 359 310 L 354 308 L 346 306 L 339 306 L 333 307 L 331 311 L 330 315 L 330 316 L 328 326 L 324 343 L 322 356 L 322 364 L 322 375 L 326 386 L 331 396 L 338 407 L 347 415 L 353 423 L 359 430 L 363 435 L 367 440 L 370 444 L 375 447 L 380 450 L 384 452 L 386 452 L 389 452 L 389 452 "></path>
        <path fill="none" stroke="#ff000e" stroke-width="3" d="M 381 346 L 381 334 L 384 318 L 388 309 L 391 305 L 393 305 L 396 305 L 402 305 L 412 304 L 421 304 L 425 306 L 428 311 L 431 325 L 433 341 L 433 355 L 433 365 L 430 376 L 424 391 L 419 401 L 413 410 L 407 418 L 402 427 L 395 434 L 389 438 L 384 442 L 380 446 L 377 449 L 373 452 L 372 454 L 371 457 L 370 460 L 370 462 L 370 463 "></path>
    </g>
</svg>
