<svg xmlns="http://www.w3.org/2000/svg" xmlns:xlink="http://www.w3.org/1999/xlink" version="1.1" x="0px" y="0px" width="800px" height="800px" viewBox="0 0 800 800">
    <g id="rootLayer">
        <path fill="none" stroke="#ffa002" stroke-width="3" d="M 745 381 L 745 381 L 745 381 L 745 381 L 745 381 L 746 381 L 746 380 L 748 377 L 748 376 L 749 373 L 750 371 L 750 368 L 751 364 L 751 362 L 752 360 L 753 358 L 753 357 L 755 353 L 755 352 L 755 349 L 755 348 L 755 347 L 755 345 L 755 344 L 754 339 L 753 334 L 753 333 L 753 333 L 753 333 "></path>
        <path fill="none" stroke="#cfcb00" stroke-width="3" d="M 453 549 L 453 549 L 452 548 L 452 548 L 452 548 L 452 548 L 454 547 L 455 547 L 456 546 L 457 546 L 460 545 L 464 544 L 468 543 L 472 543 L 477 542 L 479 542 L 484 542 L 486 542 L 488 542 L 494 544 L 497 545 L 503 549 L 505 550 L 512 551 L 516 552 L 520 553 L 526 556 L 528 557 L 530 558 L 533 561 L 539 563 L 542 565 L 546 566 L 549 567 L 553 569 L 556 571 L 562 574 L 566 576 L 569 577 L 571 578 L 574 579 L 580 581 L 584 582 L 588 583 L 592 585 L 598 588 L 602 590 L 606 591 L 609 591 L 613 592 L 616 592 L 617 592 L 621 592 L 622 592 L 625 592 L 626 593 L 627 593 L 629 593 L 629 593 L 630 593 L 630 593 L 630 593 L 630 593 L 631 593 L 632 594 L 633 595 "></path>
        <path fill="none" stroke="#cfcb00" stroke-width="3" d="M 604 392 L 604 393 L 604 393 L 604 394 L 603 396 L 602 399 L 601 400 L 599 406 L 597 414 L 596 424 L 593 440 L 592 449 L 591 453 L 590 465 L 590 474 L 590 479 L 589 484 L 589 494 L 588 501 L 588 510 L 587 513 L 587 516 L 587 518 L 587 521 L 588 523 L 588 525 L 589 525 L 589 525 L 589 524 L 589 522 "></path>
        <path fill="none" stroke="#cfcb00" stroke-width="3" d="M 497 462 L 494 463 L 494 464 L 493 464 L 493 465 L 492 465 L 492 466 L 492 466 L 491 467 L 491 468 L 490 468 L 490 468 L 490 468 L 490 468 L 491 468 L 492 468 L 495 466 L 497 465 L 500 463 L 503 459 L 506 457 L 509 455 L 511 454 L 515 452 L 520 448 L 522 447 L 528 445 L 531 444 L 535 444 L 540 444 L 543 444 L 545 443 L 547 443 L 550 442 L 552 440 L 554 439 L 556 437 L 558 435 L 562 432 L 565 430 L 567 429 L 569 429 L 571 429 L 572 429 L 572 429 L 572 429 L 572 430 L 572 431 "></path>
        <path fill="none" stroke="#cfcb00" stroke-width="3" d="M 260 615 L 260 615 L 261 615 L 263 613 L 265 609 L 266 604 L 268 600 L 270 594 L 272 588 L 275 578 L 278 570 L 281 560 L 287 542 L 291 529 L 297 517 L 303 502 L 310 484 L 318 465 L 330 436 L 338 417 L 345 399 L 352 383 L 355 376 L 360 363 L 366 354 L 371 347 L 376 342 L 378 341 L 380 341 L 381 340 L 381 340 L 381 341 L 381 349 L 379 357 L 377 366 L 376 371 L 373 382 L 370 394 L 366 416 L 366 436 L 367 446 L 369 467 L 373 497 L 375 515 L 377 541 L 379 558 L 385 578 L 390 593 L 392 603 L 392 608 L 392 613 L 389 620 L 389 621 L 389 621 L 388 620 L 383 614 L 377 609 L 373 606 L 362 595 L 353 585 L 340 564 L 325 536 L 311 505 L 299 473 L 288 442 L 281 423 L 267 403 L 253 396 L 237 397 L 230 401 L 227 402 L 224 403 L 223 403 L 224 403 L 228 403 L 240 403 L 254 408 L 271 418 L 291 426 L 314 430 L 344 437 L 365 449 L 386 459 L 405 466 L 429 473 L 443 478 L 454 484 L 459 484 L 460 479 L 455 474 L 446 470 L 430 470 L 414 477 L 388 487 L 355 503 L 328 515 L 293 528 L 261 536 L 233 536 L 214 530 L 208 529 "></path>
    </g>
</svg>
