<svg xmlns="http://www.w3.org/2000/svg" xmlns:xlink="http://www.w3.org/1999/xlink" version="1.1" x="0px" y="0px" width="800px" height="800px" viewBox="0 0 800 800">
    <g id="rootLayer">
        <path fill="none" stroke="#ff0109" stroke-width="3" d="M 326 305 L 326 304 L 326 304 L 326 304 L 326 304 L 326 304 L 326 304 L 325 304 L 325 304 L 325 304 L 325 304 L 325 304 L 325 304 L 325 304 L 325 303 L 325 303 L 325 303 L 325 303 L 325 303 L 324 303 L 324 303 L 324 303 L 324 303 L 323 303 L 323 304 L 323 304 L 323 304 L 323 305 L 323 305 L 323 305 L 323 305 L 323 305 L 323 305 L 323 305 L 323 305 L 322 305 L 322 305 L 322 305 L 322 305 L 321 305 L 321 305 L 321 306 L 321 306 L 320 306 L 320 306 L 320 306 L 319 307 L 319 307 L 318 308 L 318 309 L 317 309 L 317 310 L 317 310 L 316 311 L 316 311 L 315 312 L 315 313 L 315 313 L 314 313 L 314 314 L 313 314 L 313 315 L 313 315 L 313 316 L 312 316 L 312 317 L 312 318 L 311 318 L 311 319 L 311 319 L 311 319 L 310 320 L 310 321 L 309 321 L 309 321 L 309 322 L 309 322 L 308 322 L 308 323 L 308 323 L 307 323 L 307 324 L 306 325 L 306 326 L 305 327 L 305 328 L 305 329 L 305 329 L 305 329 L 304 330 L 304 330 L 304 331 L 303 332 L 302 333 L 302 334 L 301 334 L 301 335 L 301 337 L 301 338 L 300 340 L 300 342 L 300 344 L 300 345 L 299 345 L 299 346 L 299 347 L 297 349 L 296 351 L 296 353 L 295 357 L 294 360 L 293 362 L 293 364 L 293 367 L 293 368 L 293 369 L 293 370 L 292 372 L 292 373 L 292 374 L 292 376 L 292 378 L 292 379 L 292 381 L 292 382 L 292 384 L 292 385 L 292 385 L 293 386 L 293 387 L 293 387 L 293 388 L 293 389 L 294 390 L 294 391 L 294 392 L 295 393 L 295 394 L 295 395 L 296 397 L 296 398 L 297 399 L 297 400 L 298 401 L 298 402 L 299 403 L 299 405 L 300 405 L 300 406 L 302 407 L 302 409 L 303 410 L 303 410 L 304 411 L 304 412 L 305 413 L 305 413 L 306 413 L 306 414 L 307 414 L 307 415 L 307 416 L 307 416 L 307 416 L 308 417 L 308 417 L 308 417 L 307 416 L 307 416 L 307 416 L 307 416 L 307 419 L 307 421 L 307 422 L 307 425 L 306 429 L 306 431 L 306 433 L 307 434 L 309 435 L 310 436 L 312 437 L 314 440 L 316 443 L 317 446 L 320 449 L 322 450 L 324 450 L 327 449 L 333 447 L 338 447 L 342 449 L 345 451 L 349 453 L 352 453 L 355 453 L 356 453 L 356 453 L 358 453 L 360 454 L 365 454 L 371 451 L 377 449 L 380 449 L 382 449 L 383 449 L 384 449 L 384 450 L 385 450 L 390 451 L 393 452 L 395 453 L 395 453 L 397 455 L 398 456 L 400 456 L 402 457 L 404 457 L 406 456 L 409 455 L 413 453 L 419 448 L 423 446 L 426 444 L 431 441 L 435 438 L 440 432 L 444 426 L 446 423 L 448 421 L 450 417 L 453 413 L 458 407 L 462 403 L 464 400 L 467 394 L 470 389 L 473 385 L 474 383 L 477 376 L 480 367 L 480 361 L 479 354 L 479 350 L 479 344 L 478 336 L 476 328 L 474 322 L 472 315 L 468 309 L 462 304 L 458 300 L 450 297 L 444 297 L 439 296 L 430 299 L 421 301 L 410 301 L 401 300 L 391 294 L 375 289 L 362 284 L 359 278 L 355 277 L 348 278 L 341 279 L 333 284 L 331 289 L 328 300 L 325 308 L 321 314 L 320 315 L 311 324 L 306 329 "></path>
        <path fill="none" stroke="#66ff08" stroke-width="3" d="M 511 165 L 512 164 L 512 164 L 511 165 L 508 170 L 506 174 L 506 176 L 506 176 L 506 177 L 506 180 L 505 183 L 505 188 L 503 192 L 503 197 L 503 202 L 503 203 L 503 212 L 501 221 L 501 228 L 501 231 L 502 234 L 504 236 L 504 238 L 507 239 L 508 239 L 509 237 L 510 235 L 510 235 L 510 235 L 511 234 L 511 233 L 511 237 L 511 244 L 510 253 L 511 263 L 512 269 L 512 273 L 511 275 L 511 282 L 511 291 L 512 295 L 512 295 L 512 296 L 512 298 L 511 306 L 511 314 L 511 317 L 511 319 L 511 320 L 512 321 L 514 324 L 515 326 L 518 326 L 519 325 L 519 325 L 519 326 L 520 327 L 520 330 L 520 335 L 520 338 L 520 338 L 520 341 L 520 345 L 520 351 L 519 359 L 518 366 L 518 370 L 518 373 L 518 375 L 518 376 L 520 379 L 521 382 L 521 383 L 521 385 L 522 388 L 522 395 L 522 401 L 521 406 L 521 411 L 522 416 L 522 419 L 522 422 L 523 429 L 524 434 L 525 436 L 525 437 L 525 437 L 526 438 L 527 438 L 527 439 L 528 440 L 530 443 L 530 444 L 530 445 L 529 446 L 529 449 L 529 451 L 528 452 L 528 453 L 528 461 L 528 472 L 528 481 L 528 482 L 528 485 L 528 486 L 529 490 L 529 495 L 528 501 L 529 507 L 529 512 L 530 520 L 529 529 L 529 538 L 529 544 L 529 549 L 529 552 L 529 561 L 531 570 L 532 574 L 533 576 L 535 580 L 536 582 L 536 582 L 537 583 L 538 591 L 538 592 L 539 600 L 539 604 L 538 606 L 537 613 L 537 620 L 538 626 L 539 631 L 539 633 L 541 636 L 542 639 L 542 641 L 543 644 L 543 648 L 543 651 L 542 655 L 541 661 L 542 668 L 542 671 L 542 676 L 542 682 L 544 684 L 544 686 L 544 689 L 546 695 L 548 701 L 549 705 L 547 709 L 547 715 L 548 719 L 548 722 L 548 723 L 547 730 L 548 735 L 548 745 L 549 751 L 549 754 L 549 756 L 549 763 L 549 766 L 548 772 L 548 774 L 547 778 L 550 787 L 552 792 L 555 795 L 555 795 L 555 796 "></path>
        <path fill="none" stroke="#ff2eaf" stroke-width="3" d="M 43 249 L 43 251 "></path>
        <path fill="none" stroke="#ff2eaf" stroke-width="3" d="M 44 251 L 46 247 L 51 243 L 55 241 L 59 239 L 65 236 L 74 232 L 80 231 L 88 231 L 96 234 L 102 241 L 105 248 L 105 249 L 109 255 L 111 256 L 113 256 L 118 256 L 125 256 L 133 257 L 136 260 L 141 265 L 144 275 L 144 286 L 143 299 L 145 314 L 148 329 L 148 337 L 148 338 L 150 345 L 153 354 L 154 362 L 154 365 L 154 371 L 155 373 L 155 373 L 155 383 L 155 393 L 155 400 L 155 406 L 155 407 L 155 408 L 155 416 L 155 426 L 154 437 L 154 445 L 154 447 L 154 453 L 154 456 L 154 458 L 153 466 L 155 478 L 157 482 L 158 484 L 160 491 L 160 499 L 160 499 L 158 506 L 154 515 L 153 516 L 147 520 L 144 525 L 141 531 L 140 532 L 140 533 L 134 536 L 123 540 L 114 546 L 101 540 L 90 533 L 89 532 L 81 529 L 77 528 L 69 531 L 51 529 L 47 525 L 40 525 L 27 525 L 14 523 L 14 525 L 14 530 L 14 533 L 14 531 L 14 528 L 14 528 L 14 530 L 14 528 L 14 525 "></path>
        <path fill="none" stroke="#fdff0b" stroke-width="3" d="M 797 318 L 797 317 L 797 316 L 798 312 L 798 305 L 793 301 L 791 298 L 789 292 L 789 288 L 787 282 L 786 282 L 782 278 L 776 270 L 771 265 L 765 257 L 761 255 L 752 256 L 751 256 L 745 253 L 740 252 L 734 256 L 727 257 L 722 256 L 718 256 L 714 257 L 707 253 L 702 251 L 697 251 L 687 253 L 680 253 L 677 255 L 675 260 L 671 266 L 667 274 L 664 289 L 662 295 L 660 295 L 659 295 L 659 307 L 655 310 L 652 312 L 652 318 L 653 325 L 652 331 L 652 341 L 654 350 L 654 356 L 654 360 L 655 368 L 657 371 L 657 372 L 658 373 L 659 375 L 660 375 L 662 379 L 664 381 L 667 387 L 670 393 L 672 397 L 673 399 L 673 399 L 679 402 L 684 404 L 689 409 L 692 413 L 696 419 L 699 425 L 699 425 L 701 430 L 706 434 L 716 434 L 722 433 L 725 432 L 731 428 L 732 428 L 736 424 L 738 427 L 747 425 L 756 422 L 758 423 L 763 430 L 775 427 L 778 424 L 782 419 L 782 418 L 786 413 L 788 406 L 790 403 L 793 396 L 795 394 L 802 385 L 804 378 L 807 369 L 809 365 L 812 359 L 817 352 L 819 341 L 820 330 "></path>
        <path fill="none" stroke="#ff3d06" stroke-width="3" d="M 22 760 L 21 759 L 21 760 L 25 760 L 40 759 L 45 758 L 50 756 L 52 755 L 54 755 L 54 755 L 55 755 L 59 755 L 61 755 L 62 755 L 66 754 L 66 754 L 72 754 L 72 754 L 79 753 L 82 752 L 85 757 L 88 758 L 87 744 L 84 732 L 83 725 L 83 719 L 83 717 L 83 716 L 84 716 L 91 711 L 96 709 L 99 710 L 111 704 L 118 699 L 120 697 L 122 695 L 122 695 L 125 692 L 128 689 L 136 687 L 142 685 L 142 685 L 142 685 L 145 686 L 152 684 L 160 681 L 165 681 L 166 681 L 166 681 L 166 681 L 168 682 L 177 683 L 178 683 L 181 681 L 183 680 L 184 679 L 184 679 L 185 680 L 196 683 L 197 684 L 203 688 L 209 690 L 213 692 L 216 692 L 218 700 L 223 715 L 225 725 L 225 725 L 226 725 L 227 723 L 227 722 L 227 722 L 228 722 L 228 722 L 228 722 L 229 725 L 230 730 L 229 733 L 229 733 L 230 749 L 231 759 L 235 772 L 241 782 L 241 783 L 243 785 L 244 786 L 248 787 L 257 793 L 260 798 L 264 815 L 265 831 L 265 839 L 263 839 L 262 839 L 260 839 L 259 839 L 256 839 L 252 839 L 249 839 L 243 830 L 242 829 L 237 828 L 229 831 L 227 822 L 227 823 L 223 830 L 221 828 L 218 836 L 217 837 L 218 836 L 218 836 L 218 836 L 218 836 L 218 836 L 216 835 L 216 836 L 217 839 L 216 839 L 211 839 L 212 839 L 214 824 L 213 822 L 213 822 "></path>
        <path fill="none" stroke="#ff3d06" stroke-width="3" d="M 251 787 L 251 786 L 251 786 L 251 786 L 252 775 L 258 770 L 263 767 L 264 766 L 266 765 L 274 765 L 276 764 L 276 764 L 276 764 L 284 764 L 291 763 L 297 761 L 309 758 L 322 755 L 332 754 L 345 753 L 359 753 L 370 756 L 382 761 L 397 764 L 409 766 L 419 767 L 432 765 L 443 758 L 444 758 L 452 754 L 464 756 L 480 756 L 481 756 L 489 755 L 492 757 L 507 766 L 523 768 L 538 773 L 546 777 L 550 781 L 559 779 L 569 777 L 577 779 L 583 780 L 588 780 L 595 778 L 596 777 L 598 776 L 608 771 L 609 770 L 615 758 L 616 758 L 623 757 L 631 755 L 639 748 L 642 745 L 648 746 L 656 748 L 659 749 L 661 754 L 664 758 L 670 759 L 677 760 L 678 760 L 680 761 L 684 761 L 690 759 L 695 757 L 699 756 L 701 755 L 704 756 L 710 757 L 715 759 L 723 763 L 737 763 L 742 758 L 745 755 L 753 743 L 758 732 L 758 728 L 758 728 L 759 729 L 768 738 L 773 742 L 778 747 L 778 748 L 782 750 L 785 750 L 791 748 L 799 748 L 805 749 L 811 751 L 814 753 L 817 761 L 818 761 L 820 759 L 820 750 L 820 749 L 820 747 "></path>
        <path fill="none" stroke="#19ff03" stroke-width="3" d="M 488 85 L 484 88 L 476 94 L 464 99 L 454 103 L 447 104 L 433 107 L 423 107 L 419 105 L 405 103 L 403 102 L 399 97 L 395 100 L 390 109 L 387 114 L 381 124 L 379 131 L 377 135 L 373 136 L 374 147 L 375 157 L 376 167 L 380 174 L 384 176 L 387 177 L 397 166 L 407 162 L 419 157 L 430 154 L 439 153 L 453 155 L 463 160 L 464 160 L 464 160 L 464 161 L 467 164 L 475 167 L 479 172 L 483 172 L 489 171 L 493 178 L 497 178 L 497 178 L 506 179 L 506 179 L 515 178 L 518 176 L 520 174 L 525 173 L 533 166 L 540 158 L 549 156 L 556 155 L 560 156 L 566 153 L 568 141 L 567 134 L 564 126 L 557 116 L 546 114 L 543 110 L 533 104 L 523 105 L 518 95 L 512 84 L 505 88 L 499 90 L 492 90 L 482 107 L 479 111 L 475 111 L 465 122 L 463 122 "></path>
    </g>
</svg>
