<svg xmlns="http://www.w3.org/2000/svg" xmlns:xlink="http://www.w3.org/1999/xlink" version="1.1" x="0px" y="0px" width="800px" height="800px" viewBox="0 0 800 800">
    <g id="rootLayer">
        <path fill="none" stroke="#ff0b10" stroke-width="3" d="M 68 65 L 68 66 L 68 70 L 68 73 L 68 75 L 68 76 L 68 76 L 68 76 L 73 73 L 82 60 L 94 40 L 96 35 L 100 26 L 104 18 L 106 14 L 106 14 L 106 14 L 107 14 L 107 16 L 108 19 L 111 28 L 115 37 L 120 44 L 122 47 L 125 49 L 127 50 L 129 50 L 132 50 L 133 48 L 135 47 L 135 46 L 136 46 L 136 46 L 137 46 L 140 46 L 144 46 L 149 46 L 154 50 L 160 57 L 164 61 L 168 64 L 172 66 L 176 67 L 179 65 L 181 61 L 183 57 L 184 53 L 185 50 L 185 49 L 186 49 L 187 49 L 189 51 L 190 53 L 195 58 L 200 63 L 207 66 L 214 67 L 222 67 L 230 62 L 237 55 L 241 49 L 242 48 L 243 46 L 243 46 L 244 48 L 246 52 L 249 57 L 255 61 L 263 64 L 277 65 L 290 65 L 304 59 L 317 47 L 321 42 L 323 39 L 324 38 L 324 44 L 324 50 L 325 56 L 338 63 L 351 64 L 361 64 L 373 61 L 384 52 L 387 45 L 388 39 L 388 36 L 388 35 L 388 37 L 392 40 L 398 41 L 416 42 L 432 36 L 445 26 L 448 23 L 454 18 L 459 12 L 460 12 L 460 14 L 458 23 L 456 38 L 456 47 L 460 50 L 469 50 L 473 50 L 475 50 L 476 50 L 476 53 L 476 55 L 491 59 L 504 59 L 511 57 L 514 54 L 514 53 L 510 53 L 493 58 L 482 65 L 474 71 L 473 74 L 472 75 L 471 75 L 469 75 L 466 75 L 463 74 L 460 73 L 459 73 L 459 73 L 459 74 L 459 81 L 459 87 L 459 90 L 459 91 L 459 91 L 459 90 L 459 89 L 460 87 L 461 86 L 463 86 L 466 86 L 467 87 L 468 87 L 469 88 L 469 88 L 468 89 L 465 89 L 465 89 L 465 90 L 465 90 L 465 91 L 465 92 L 464 92 L 465 91 L 465 91 L 465 90 L 466 89 L 468 88 L 471 88 L 471 88 L 471 90 L 471 91 L 470 91 L 469 91 L 469 91 L 468 91 L 468 90 L 472 86 L 484 83 L 499 80 L 515 76 L 537 69 L 553 64 L 564 61 L 566 61 L 566 61 L 569 61 L 576 59 L 580 56 L 580 54 L 583 47 L 591 41 L 603 34 L 615 32 L 627 50 L 636 75 L 646 98 L 652 103 L 669 85 L 691 56 L 693 52 L 693 55 L 701 56 L 732 49 L 745 46 L 745 46 L 746 52 L 746 62 L 745 65 L 746 65 L 750 65 L 751 70 L 751 80 L 750 87 L 748 109 L 748 119 L 748 118 L 749 109 L 749 110 L 739 252 L 724 388 L 722 430 L 722 428 L 729 406 L 738 389 L 738 387 L 738 388 L 740 341 L 740 257 L 740 239 L 739 249 L 741 311 L 733 452 L 730 520 L 729 541 L 729 542 L 728 557 L 727 560 L 727 560 L 727 556 L 727 521 L 725 502 L 726 534 L 729 562 L 729 565 L 729 562 L 731 542 L 732 542 L 731 561 L 735 569 "></path>
        <path fill="none" stroke="#ff0b10" stroke-width="3" d="M 731 573 L 731 572 L 731 570 L 731 572 L 732 593 L 733 613 L 738 640 L 739 647 L 739 647 L 739 647 L 742 653 L 738 652 L 730 666 L 735 687 L 743 695 L 745 702 L 745 712 L 748 715 L 756 697 L 752 676 L 738 685 L 739 709 L 746 721 L 751 723 L 751 725 L 746 742 L 755 751 L 753 744 L 719 754 L 702 765 L 704 761 L 706 748 L 704 739 L 698 756 L 706 765 L 712 748 L 690 738 L 677 750 L 683 755 L 684 741 L 661 729 L 649 739 L 649 750 L 650 751 L 643 741 L 631 754 L 628 762 L 621 743 L 602 748 L 597 751 L 600 733 L 593 741 L 591 746 L 588 747 L 579 749 L 575 748 L 565 758 L 564 760 L 556 762 L 555 745 L 549 747 L 546 765 L 548 757 L 543 752 L 539 760 L 540 753 L 532 747 L 525 757 L 517 763 L 517 744 L 511 740 L 500 750 L 492 745 L 477 724 L 461 721 L 451 726 L 445 717 L 443 715 L 444 726 L 439 717 L 437 716 L 419 717 L 405 740 L 393 748 L 381 752 L 380 760 L 377 777 L 377 777 L 374 763 L 369 751 L 364 762 L 356 759 L 345 737 L 343 737 L 335 743 L 325 738 L 314 735 L 308 735 L 301 724 L 296 727 L 291 733 L 279 720 L 268 719 L 260 730 L 250 722 L 240 721 L 237 741 L 226 726 L 213 719 L 205 719 L 193 717 L 175 712 L 170 709 L 161 715 L 147 705 L 144 696 L 139 716 L 131 724 L 117 728 L 104 728 L 88 746 L 79 751 L 75 732 L 64 738 L 58 746 L 55 724 L 44 703 L 20 704 L 15 705 L 14 689 L 14 684 L 14 701 L 14 699 L 14 687 L 14 684 L 14 670 L 16 646 L 23 644 L 20 639 L 20 639 L 23 635 L 49 627 L 25 618 L 19 607 L 37 594 L 44 577 L 26 565 L 34 555 L 38 539 L 23 522 L 34 500 L 39 495 L 45 488 L 30 463 L 35 455 L 44 446 L 38 437 L 44 412 L 45 397 L 56 380 L 40 365 L 46 345 L 57 330 L 58 319 L 56 301 L 46 288 L 53 279 L 64 267 L 57 255 L 57 231 L 57 217 L 43 209 L 39 199 L 64 181 L 68 164 L 54 159 L 73 131 L 77 119 L 69 107 L 66 94 L 67 89 L 82 79 L 84 69 L 78 66 L 88 63 L 91 58 L 89 58 L 86 58 L 77 58 L 75 58 L 65 58 "></path>
        <path fill="none" stroke="#00ff00" stroke-width="3" d="M 113 160 L 161 186 L 214 226 L 290 259 L 404 319 L 409 321 L 518 405 L 592 484 L 661 573 L 663 577 L 697 665 L 710 715 L 686 760 L 684 761 L 632 779 L 630 779 L 576 803 L 494 817 L 395 794 L 301 740 L 227 664 L 177 590 L 162 506 L 183 416 L 255 281 L 340 188 L 449 92 L 559 58 L 654 62 L 722 110 L 755 199 L 749 297 L 732 379 L 674 459 L 577 567 L 441 680 L 301 730 L 190 748 L 123 680 L 77 559 L 63 413 L 137 292 L 266 223 L 424 177 L 562 177 L 664 214 L 729 271 L 774 327 L 806 400 L 807 487 L 793 587 L 747 700 L 744 703 L 664 762 L 553 761 L 426 666 L 305 517 L 193 324 L 115 121 L 140 58 L 267 58 L 432 113 L 588 233 L 690 366 L 725 488 L 711 587 L 680 700 L 649 784 L 609 820 L 607 820 L 537 780 L 484 696 L 466 564 L 508 359 L 598 143 L 689 58 L 742 58 L 777 132 L 779 262 L 702 407 L 697 413 L 535 574 L 334 744 L 215 804 L 125 805 L 80 725 L 68 556 L 97 297 L 171 85 L 235 58 L 281 135 L 323 295 L 353 498 L 330 711 L 242 789 L 185 721 L 221 510 L 372 280 L 568 106 L 701 58 L 771 101 L 789 198 L 776 309 L 725 470 L 659 588 L 608 683 L 522 671 L 441 602 L 361 514 L 268 417 L 145 305 L 49 174 L 47 169 L 67 58 L 187 58 L 342 97 L 400 255 L 428 456 L 426 671 L 380 801 L 306 785 L 287 651 L 288 644 L 361 452 L 484 239 L 632 109 L 706 86 L 755 162 L 771 291 L 700 401 L 603 432 L 592 366 L 665 335 L 756 402 L 751 529 L 579 608 L 333 643 L 139 621 L 108 459 L 231 332 L 472 365 L 634 556 L 730 739 L 592 782 L 365 742 L 248 602 L 280 365 L 441 190 L 611 241 L 705 454 L 598 628 L 404 704 L 434 566 L 460 303 L 340 237 L 173 353 L 116 568 L 116 577 L 192 708 L 422 596 L 638 347 L 731 237 L 732 230 "></path>
        <path fill="none" stroke="#ff7300" stroke-width="3" d="M 49 242 L 62 399 L 198 409 L 383 458 L 383 458 L 375 219 L 361 103 L 151 104 L 70 126 L 85 386 L 211 442 L 411 495 L 418 181 L 378 114 L 372 116 L 154 109 L 108 204 L 95 436 L 316 482 L 481 489 L 454 611 L 461 837 L 683 839 L 820 789 L 811 539 L 658 495 L 448 450 L 452 737 L 525 839 L 785 830 L 820 688 L 816 516 L 607 516 L 476 541 L 474 791 L 541 839 L 784 839 L 819 681 L 761 532 L 460 556 L 319 593 L 223 507 L 246 245 L 412 194 L 577 232 L 570 528 L 545 642 L 317 691 L 260 579 L 236 303 L 384 259 L 582 274 L 581 421 L 569 607 L 327 686 L 320 686 L 251 646 L 283 340 L 441 285 L 432 232 L 471 62 L 688 59 L 789 98 L 797 404 L 797 414 L 707 504 L 490 498 L 481 323 L 504 96 L 727 58 L 811 107 L 801 428 L 679 493 L 487 474 L 460 250 L 567 76 L 767 58 L 793 248 L 705 446 L 457 424 L 343 418 L 134 427 L 132 428 L 88 602 L 92 810 L 395 839 L 427 707 L 417 444 L 187 436 L 78 497 L 74 826 L 218 833 L 442 831 L 449 527 L 317 477 L 76 494 L 78 733 L 237 819 L 416 827 "></path>
    </g>
</svg>
