<svg xmlns="http://www.w3.org/2000/svg" xmlns:xlink="http://www.w3.org/1999/xlink" version="1.1" x="0px" y="0px" width="800px" height="800px" viewBox="0 0 800 800">
    <g id="rootLayer">
        <path fill="none" stroke="#00ff00" stroke-width="3" d="M 242 255 L 242 255 L 241 255 L 241 255 L 241 255 L 240 255 L 240 255 L 240 255 L 239 255 L 239 255 L 238 255 L 238 255 L 238 256 L 237 256 L 236 257 L 236 258 L 234 259 L 233 260 L 232 260 L 231 261 L 230 261 L 229 262 L 228 263 L 227 264 L 226 265 L 225 267 L 224 268 L 224 270 L 223 272 L 223 274 L 222 276 L 222 279 L 222 282 L 222 285 L 222 288 L 222 291 L 222 294 L 223 297 L 223 300 L 224 303 L 226 308 L 227 310 L 228 312 L 229 314 L 230 316 L 233 319 L 237 322 L 239 323 L 241 325 L 243 326 L 245 328 L 247 329 L 252 331 L 255 333 L 257 334 L 262 336 L 265 337 L 267 338 L 270 339 L 274 339 L 279 339 L 282 338 L 284 337 L 286 335 L 288 332 L 290 330 L 292 327 L 293 324 L 297 317 L 299 311 L 301 309 L 302 304 L 303 302 L 303 300 L 303 296 L 303 293 L 303 289 L 302 285 L 302 282 L 301 277 L 301 275 L 301 271 L 301 267 L 301 265 L 301 262 L 300 260 L 300 258 L 298 254 L 297 252 L 293 246 L 292 244 L 290 242 L 288 241 L 287 239 L 282 237 L 278 236 L 273 234 L 269 233 L 265 233 L 263 233 L 260 234 L 257 238 L 253 245 L 250 254 L 248 259 L 244 268 L 241 275 L 240 277 L 239 279 L 239 281 "></path>
        <path fill="none" stroke="#00ff00" stroke-width="3" d="M 278 321 L 278 318 L 278 318 L 278 320 L 278 321 L 278 323 L 278 324 L 278 326 L 278 329 L 278 331 L 278 334 L 278 338 L 278 340 L 277 344 L 277 349 L 276 354 L 276 359 L 275 368 L 275 373 L 275 379 L 275 385 L 275 390 L 275 392 L 275 397 L 274 402 L 274 408 L 274 414 L 273 423 L 273 427 L 272 432 L 272 437 L 272 440 L 271 446 L 271 452 L 271 459 L 270 465 L 269 468 L 268 474 L 267 481 L 266 490 L 265 499 L 264 515 L 264 524 L 264 532 L 264 540 L 264 548 L 264 555 L 264 558 L 264 564 L 264 567 L 264 568 L 264 568 L 264 568 L 264 568 L 263 569 L 261 570 L 259 572 L 257 573 L 254 575 L 251 578 L 248 580 L 245 582 L 241 584 L 238 586 L 236 588 L 234 590 L 231 595 L 228 598 L 226 601 L 224 605 L 220 612 L 218 616 L 217 620 L 214 624 L 213 627 L 211 630 L 210 633 L 208 636 L 206 638 L 205 640 L 204 642 L 204 642 "></path>
        <path fill="none" stroke="#00ff00" stroke-width="3" d="M 261 523 L 261 523 L 262 523 L 262 523 L 262 524 L 262 525 L 262 526 L 262 526 L 263 527 L 263 529 L 263 530 L 263 532 L 263 535 L 263 537 L 263 542 L 263 545 L 263 550 L 263 552 L 263 557 L 262 559 L 262 564 L 262 568 L 262 573 L 263 580 L 264 586 L 264 588 L 266 590 L 267 592 L 270 597 L 273 601 L 276 609 L 279 615 L 282 622 L 285 625 L 288 627 L 290 628 L 293 629 L 295 629 L 296 629 L 298 628 L 302 626 L 305 625 L 309 626 L 313 630 L 315 633 "></path>
        <path fill="none" stroke="#00ff00" stroke-width="3" d="M 211 354 L 211 354 L 211 354 L 212 354 L 212 354 L 214 356 L 215 357 L 217 361 L 219 363 L 221 366 L 222 370 L 224 375 L 227 381 L 229 384 L 233 390 L 237 396 L 240 400 L 244 406 L 247 411 L 249 415 L 250 418 L 251 421 L 253 423 L 253 423 L 253 423 L 253 423 L 253 423 L 253 423 L 254 424 L 256 425 L 257 426 L 258 426 L 259 427 L 260 428 L 261 430 L 262 430 L 263 430 L 264 430 L 265 431 L 265 431 L 266 431 L 267 431 L 267 431 L 267 431 L 268 431 L 268 431 L 268 432 L 268 432 L 268 432 L 268 432 L 269 432 L 270 431 L 271 430 L 272 427 L 275 420 L 278 409 L 281 399 L 288 379 L 292 367 L 296 361 L 299 358 L 303 355 L 306 355 L 311 361 L 312 364 L 314 367 L 314 367 L 314 367 L 315 367 L 315 367 L 316 367 L 316 367 L 315 367 L 313 365 "></path>
        <path fill="none" stroke="#ff0308" stroke-width="3" d="M 432 252 L 432 251 L 432 249 L 433 247 L 434 247 L 434 247 L 434 247 L 432 246 L 430 245 L 428 245 L 425 244 L 423 244 L 420 244 L 417 245 L 414 247 L 413 248 L 410 248 L 408 248 L 405 250 L 403 251 L 401 253 L 400 254 L 399 257 L 398 263 L 397 269 L 397 274 L 396 277 L 396 282 L 397 291 L 398 309 L 400 318 L 402 321 L 405 322 L 410 326 L 417 332 L 421 336 L 425 338 L 428 339 L 432 340 L 438 336 L 443 332 L 448 329 L 454 326 L 458 321 L 461 315 L 462 311 L 462 310 L 462 309 L 464 306 L 466 301 L 469 296 L 470 294 L 472 288 L 472 280 L 472 273 L 470 269 L 469 268 L 467 265 L 464 262 L 461 255 L 457 251 L 454 247 L 453 247 L 450 246 L 446 244 L 440 240 L 436 239 L 434 239 L 433 241 L 431 243 L 427 246 L 424 250 L 421 253 L 418 254 L 414 255 L 411 258 L 412 266 L 413 272 "></path>
        <path fill="none" stroke="#ff0308" stroke-width="3" d="M 441 327 L 441 325 L 441 324 L 440 324 L 440 324 L 440 324 L 439 324 L 437 323 L 436 323 L 436 323 L 436 323 L 436 323 L 436 323 L 436 323 L 435 327 L 434 332 L 434 337 L 434 341 L 435 349 L 435 355 L 436 361 L 436 366 L 436 372 L 436 378 L 435 383 L 435 387 L 435 395 L 436 404 L 436 410 L 437 416 L 437 422 L 438 430 L 439 442 L 440 452 L 441 460 L 442 466 L 442 474 L 443 484 L 444 492 L 445 502 L 446 514 L 446 521 L 446 523 L 446 524 L 446 525 L 446 526 L 446 526 L 446 526 L 446 526 L 446 526 L 446 526 L 446 527 L 445 527 L 444 527 "></path>
        <path fill="none" stroke="#ff0308" stroke-width="3" d="M 406 587 L 406 590 L 406 591 L 405 593 L 405 596 L 405 600 L 405 601 L 405 604 L 404 607 L 404 610 L 404 613 L 404 616 L 403 619 L 403 620 L 403 620 L 405 617 L 406 613 L 407 609 L 408 608 L 410 606 L 413 603 L 419 599 L 424 596 L 427 594 L 429 592 L 431 588 L 433 580 L 434 577 L 436 569 L 437 566 L 439 559 L 442 556 L 444 553 L 446 546 L 448 539 L 450 532 L 451 521 L 452 511 L 452 509 L 453 506 L 453 504 L 454 504 L 454 504 L 454 503 L 454 503 L 454 503 L 454 503 L 451 508 L 448 515 L 447 517 L 447 517 L 447 518 L 447 519 L 445 533 L 445 535 L 446 540 L 447 545 L 451 551 L 453 557 L 455 564 L 458 571 L 461 576 L 464 584 L 467 589 L 469 592 L 471 595 L 471 595 L 472 598 L 472 598 L 473 598 L 478 602 L 482 605 L 484 607 L 484 607 L 484 607 L 483 605 "></path>
        <path fill="none" stroke="#ff0308" stroke-width="3" d="M 381 351 L 382 352 L 383 353 L 384 354 L 386 356 L 388 358 L 390 360 L 393 363 L 396 365 L 402 367 L 408 371 L 413 375 L 420 380 L 427 386 L 433 390 L 437 395 L 439 398 L 440 399 L 440 399 L 443 401 L 444 402 L 444 402 L 443 402 L 443 402 L 442 402 L 443 402 L 447 400 L 452 396 L 456 394 L 457 394 L 461 394 L 462 393 L 467 392 L 475 388 L 482 386 L 488 386 L 493 386 L 495 386 L 495 385 L 495 385 L 496 384 L 500 378 L 501 376 L 501 376 L 501 376 L 499 375 L 497 374 L 497 374 "></path>
        <path fill="none" stroke="#ff0308" stroke-width="3" d="M 372 335 "></path>
        <path fill="none" stroke="#ff0308" stroke-width="3" d="M 372 335 L 378 337 L 380 338 L 382 338 L 384 336 L 386 333 L 390 330 L 392 328 L 393 327 L 394 326 L 395 325 L 396 323 L 397 319 L 398 315 L 398 314 L 398 313 L 398 308 L 398 304 L 398 301 L 398 297 L 398 295 L 399 293 L 399 292 L 399 291 L 399 288 L 399 284 L 399 281 L 399 280 L 399 278 L 400 274 L 401 271 L 403 267 L 404 266 L 404 264 L 405 262 L 406 260 L 408 258 L 409 256 L 410 255 L 411 254 L 411 253 L 412 251 L 415 246 L 417 243 L 417 243 L 418 243 L 418 243 L 420 241 L 424 238 L 426 237 L 426 236 L 427 236 L 428 235 L 431 235 L 435 234 L 438 234 L 441 236 L 444 238 L 448 241 L 451 243 L 453 245 L 455 248 L 457 250 L 459 253 L 461 255 L 463 257 L 465 260 L 465 263 L 466 264 L 466 267 L 467 270 L 467 273 L 468 279 L 468 283 L 468 283 L 468 284 L 468 288 L 468 291 L 468 295 L 468 301 L 468 307 L 468 313 L 468 321 L 469 325 L 470 328 L 472 334 L 473 339 L 475 343 L 478 345 L 481 346 L 483 347 L 485 347 L 487 348 L 489 348 L 493 346 L 493 345 L 492 345 "></path>
        <path fill="none" stroke="#ffa002" stroke-width="3" d="M 366 432 "></path>
        <path fill="none" stroke="#ffa002" stroke-width="3" d="M 366 432 L 369 437 L 370 437 L 369 433 L 368 430 L 368 428 L 368 424 L 367 421 L 366 419 L 365 417 L 364 414 L 362 409 L 359 406 L 356 405 L 352 404 L 347 404 L 343 404 L 338 406 L 335 410 L 333 417 L 333 427 L 332 438 L 334 447 L 336 462 L 341 472 L 348 485 L 355 496 L 360 507 L 363 512 L 364 515 L 365 516 L 369 521 L 374 525 L 376 527 L 375 518 "></path>
        <path fill="none" stroke="#ffa002" stroke-width="3" d="M 368 432 L 368 433 L 368 435 L 368 437 L 368 439 L 368 440 L 368 439 L 368 437 L 369 431 L 371 427 L 371 426 L 371 426 L 371 420 L 372 418 L 373 413 L 374 410 L 375 410 L 378 407 L 382 404 L 386 404 L 389 404 L 392 406 L 395 411 L 399 417 L 401 421 L 403 427 L 405 435 L 405 446 L 404 455 L 404 458 L 402 468 L 401 472 L 399 484 L 397 493 L 395 499 L 393 511 L 390 515 L 387 517 L 385 518 L 381 528 L 380 532 L 379 533 L 378 538 L 378 539 L 377 539 L 375 539 L 375 534 L 375 532 "></path>
    </g>
</svg>
